<?xml version="1.0" encoding="UTF-8"?>
<!DOCTYPE svg PUBLIC "-//W3C//DTD SVG 1.1//EN" "http://www.w3.org/Graphics/SVG/1.1/DTD/svg11.dtd">
<svg xmlns="http://www.w3.org/2000/svg" version="1.1" width="500px" height="500px" style="shape-rendering:geometricPrecision; text-rendering:geometricPrecision; image-rendering:optimizeQuality; fill-rule:evenodd; clip-rule:evenodd" xmlns:xlink="http://www.w3.org/1999/xlink">
<g><path style="opacity:1" fill="#4ed884" d="M 291.5,65.5 C 291.611,66.1174 291.944,66.6174 292.5,67C 296.43,67.2415 300.097,68.0749 303.5,69.5C 298.622,69.4485 293.955,68.6152 289.5,67C 272.5,66.3333 255.5,66.3333 238.5,67C 226.749,69.1832 215.083,71.6832 203.5,74.5C 203.5,74.1667 203.5,73.8333 203.5,73.5C 205.898,73.7406 207.898,73.0739 209.5,71.5C 212.152,71.5905 214.485,70.9238 216.5,69.5C 219.273,68.3428 222.273,67.6761 225.5,67.5C 231.83,67.7028 237.83,66.7028 243.5,64.5C 259.581,63.075 275.581,63.4083 291.5,65.5 Z"/></g>
<g><path style="opacity:1" fill="#84e2ac" d="M 243.5,64.5 C 237.83,66.7028 231.83,67.7028 225.5,67.5C 231.223,65.5792 237.223,64.5792 243.5,64.5 Z"/></g>
<g><path style="opacity:1" fill="#91e9b8" d="M 291.5,65.5 C 297.75,66.2323 303.75,67.5656 309.5,69.5C 307.5,69.5 305.5,69.5 303.5,69.5C 300.097,68.0749 296.43,67.2415 292.5,67C 291.944,66.6174 291.611,66.1174 291.5,65.5 Z"/></g>
<g><path style="opacity:1" fill="#91ecc0" d="M 216.5,69.5 C 214.485,70.9238 212.152,71.5905 209.5,71.5C 211.438,69.8372 213.772,69.1706 216.5,69.5 Z"/></g>
<g><path style="opacity:1" fill="#bff9e5" d="M 311.5,69.5 C 313.553,69.4021 315.22,70.0687 316.5,71.5C 314.447,71.5979 312.78,70.9313 311.5,69.5 Z"/></g>
<g><path style="opacity:1" fill="#08d968" d="M 303.5,69.5 C 305.5,69.5 307.5,69.5 309.5,69.5C 310.167,69.5 310.833,69.5 311.5,69.5C 312.78,70.9313 314.447,71.5979 316.5,71.5C 317.167,71.5 317.833,71.5 318.5,71.5C 319.287,73.1042 320.62,73.7709 322.5,73.5C 322.833,73.5 323.167,73.5 323.5,73.5C 325.046,75.9305 327.379,77.2639 330.5,77.5C 333.997,78.928 337.33,80.928 340.5,83.5C 344.107,84.8085 347.774,85.8085 351.5,86.5C 352.68,88.913 354.68,89.913 357.5,89.5C 358.035,91.4456 359.368,92.4456 361.5,92.5C 361.833,92.5 362.167,92.5 362.5,92.5C 362.539,93.5832 362.873,94.5832 363.5,95.5C 365.746,97.7631 368.413,99.0964 371.5,99.5C 371.973,100.906 372.973,101.573 374.5,101.5C 374.833,102.5 375.5,103.167 376.5,103.5C 376.973,104.906 377.973,105.573 379.5,105.5C 379.525,108.179 380.858,109.512 383.5,109.5C 385.782,112.122 388.115,114.788 390.5,117.5C 390.5,119.5 390.5,121.5 390.5,123.5C 388.876,123.64 387.71,122.973 387,121.5C 386.28,123.112 386.446,124.612 387.5,126C 386.551,126.617 385.718,126.451 385,125.5C 383.232,128.08 381.732,130.747 380.5,133.5C 376.932,133.759 375.599,135.759 376.5,139.5C 374.5,139.833 372.5,140.167 370.5,140.5C 370.467,143.543 369.134,145.876 366.5,147.5C 365.914,147.291 365.414,146.957 365,146.5C 364.685,148.586 364.185,150.586 363.5,152.5C 361.833,152.5 360.167,152.5 358.5,152.5C 358.5,154.167 358.5,155.833 358.5,157.5C 357.5,157.833 356.833,158.5 356.5,159.5C 354.073,159.523 351.74,160.023 349.5,161C 350.337,162.011 350.67,163.178 350.5,164.5C 349.127,164.343 347.793,164.51 346.5,165C 347.654,165.914 347.487,166.747 346,167.5C 345.586,167.043 345.086,166.709 344.5,166.5C 343.548,168.045 343.215,169.712 343.5,171.5C 342.127,171.343 340.793,171.51 339.5,172C 340.337,173.011 340.67,174.178 340.5,175.5C 337.495,175.25 335.662,176.583 335,179.5C 333.989,178.663 332.822,178.33 331.5,178.5C 331.5,179.5 331.5,180.5 331.5,181.5C 328.86,180.552 326.193,179.552 323.5,178.5C 322.738,176.738 321.404,175.738 319.5,175.5C 315.088,171.746 310.422,168.413 305.5,165.5C 303.973,162.932 301.639,161.599 298.5,161.5C 298.167,161.5 297.833,161.5 297.5,161.5C 296.781,159.112 295.115,157.612 292.5,157C 290.19,156.503 287.857,156.337 285.5,156.5C 285.167,156.5 284.833,156.5 284.5,156.5C 281.802,154.828 278.802,153.661 275.5,153C 267.655,152.178 259.989,152.344 252.5,153.5C 249.482,153.335 246.482,153.502 243.5,154C 242.944,154.383 242.611,154.883 242.5,155.5C 242.167,155.5 241.833,155.5 241.5,155.5C 239.143,155.337 236.81,155.503 234.5,156C 232.881,156.236 231.881,157.069 231.5,158.5C 230.609,159.11 229.609,159.443 228.5,159.5C 226.143,159.337 223.81,159.503 221.5,160C 217.728,162.22 213.728,163.886 209.5,165C 208.663,166.011 208.33,167.178 208.5,168.5C 207.167,168.5 205.833,168.5 204.5,168.5C 204.371,170.216 204.038,171.883 203.5,173.5C 203.5,174.167 203.167,174.5 202.5,174.5C 200.565,175.15 198.565,175.483 196.5,175.5C 195.684,177.895 194.684,180.229 193.5,182.5C 191.738,183.262 190.738,184.596 190.5,186.5C 189.167,186.5 187.833,186.5 186.5,186.5C 186.5,188.167 186.5,189.833 186.5,191.5C 182.425,194.448 180.092,198.448 179.5,203.5C 179.267,205.062 178.6,206.395 177.5,207.5C 177.167,207.5 176.833,207.5 176.5,207.5C 172.566,213.416 170.233,220.083 169.5,227.5C 169.5,229.167 169.5,230.833 169.5,232.5C 169.5,232.833 169.5,233.167 169.5,233.5C 168.021,237.909 167.354,242.576 167.5,247.5C 167.392,252.745 168.058,257.745 169.5,262.5C 169.5,262.833 169.5,263.167 169.5,263.5C 168.964,266.698 169.631,269.365 171.5,271.5C 171.5,272.167 171.5,272.833 171.5,273.5C 171.259,275.898 171.926,277.898 173.5,279.5C 174.931,280.78 175.598,282.447 175.5,284.5C 175.229,286.38 175.896,287.713 177.5,288.5C 179.642,292.915 181.975,297.248 184.5,301.5C 184.738,303.404 185.738,304.738 187.5,305.5C 188.08,307.749 189.413,309.415 191.5,310.5C 191.833,311.5 192.5,312.167 193.5,312.5C 194.912,317.576 198.245,320.576 203.5,321.5C 204.608,325.404 207.275,327.404 211.5,327.5C 214.032,328.596 216.365,329.929 218.5,331.5C 218.973,332.906 219.973,333.573 221.5,333.5C 221.833,333.5 222.167,333.5 222.5,333.5C 223.287,335.104 224.62,335.771 226.5,335.5C 227.99,337.28 229.99,337.946 232.5,337.5C 234.438,339.163 236.772,339.829 239.5,339.5C 239.414,340.496 239.748,341.329 240.5,342C 250.963,343.682 261.296,343.849 271.5,342.5C 276.95,342.417 281.95,341.084 286.5,338.5C 289.716,338.655 292.383,337.655 294.5,335.5C 298.236,335.459 301.236,334.126 303.5,331.5C 304.29,330.599 305.29,329.932 306.5,329.5C 308.027,329.573 309.027,328.906 309.5,327.5C 309.833,327.5 310.167,327.5 310.5,327.5C 314.428,326.226 317.428,323.893 319.5,320.5C 323.402,318.107 326.902,315.107 330,311.5C 330.671,312.252 331.504,312.586 332.5,312.5C 333.338,312.842 333.672,313.508 333.5,314.5C 333.957,316.773 335.29,318.106 337.5,318.5C 337.833,318.5 338.167,318.5 338.5,318.5C 339.167,321.167 340.833,322.833 343.5,323.5C 345.641,325.122 347.308,327.122 348.5,329.5C 348.281,330.675 348.614,331.675 349.5,332.5C 354.215,336.557 358.882,340.557 363.5,344.5C 363.5,345.833 363.5,347.167 363.5,348.5C 364.978,348.238 366.311,348.571 367.5,349.5C 368.336,353.341 370.669,355.341 374.5,355.5C 374.833,355.5 375.167,355.5 375.5,355.5C 380.44,361.778 385.773,367.778 391.5,373.5C 390.566,374.568 390.232,375.901 390.5,377.5C 386.515,377.44 384.848,379.44 385.5,383.5C 384.508,383.328 383.842,383.662 383.5,384.5C 380.425,385.072 378.425,386.905 377.5,390C 375.564,390.813 373.564,391.313 371.5,391.5C 371.5,392.5 371.5,393.5 371.5,394.5C 370.5,394.5 369.5,394.5 368.5,394.5C 368.5,395.833 368.5,397.167 368.5,398.5C 366.167,398.5 363.833,398.5 361.5,398.5C 361.5,399.833 361.5,401.167 361.5,402.5C 355.306,405.496 348.973,408.33 342.5,411C 339.537,412.628 336.87,414.462 334.5,416.5C 330.678,417.354 327.344,419.021 324.5,421.5C 324.167,421.5 323.833,421.5 323.5,421.5C 321.447,421.402 319.78,422.069 318.5,423.5C 318.167,423.5 317.833,423.5 317.5,423.5C 315.102,423.259 313.102,423.926 311.5,425.5C 308.848,425.41 306.515,426.076 304.5,427.5C 303.833,427.5 303.167,427.5 302.5,427.5C 299.505,427.294 296.838,427.96 294.5,429.5C 293.833,429.5 293.167,429.5 292.5,429.5C 282.997,429.688 273.497,430.021 264,430.5C 251.545,429.247 239.045,428.247 226.5,427.5C 225.167,427.5 223.833,427.5 222.5,427.5C 221.833,427.5 221.167,427.5 220.5,427.5C 218.898,425.926 216.898,425.259 214.5,425.5C 212.485,424.076 210.152,423.41 207.5,423.5C 207.167,423.5 206.833,423.5 206.5,423.5C 204.383,421.345 201.716,420.345 198.5,420.5C 196.824,418.166 194.491,417.166 191.5,417.5C 191.167,417.5 190.833,417.5 190.5,417.5C 190.5,416.5 190.5,415.5 190.5,414.5C 187.833,414.167 185.167,413.833 182.5,413.5C 180.888,411.702 179.388,409.702 178,407.5C 177.439,408.022 176.772,408.355 176,408.5C 173.128,406.487 169.962,405.153 166.5,404.5C 166.027,403.094 165.027,402.427 163.5,402.5C 162.952,399.916 161.285,398.916 158.5,399.5C 157.415,397.413 155.749,396.08 153.5,395.5C 152.656,393.241 150.989,392.241 148.5,392.5C 148.5,392.167 148.5,391.833 148.5,391.5C 147.415,389.413 145.749,388.08 143.5,387.5C 141.5,385.167 139.5,382.833 137.5,380.5C 135.849,377.577 133.516,375.243 130.5,373.5C 129.735,370.574 128.068,368.574 125.5,367.5C 123.597,364.385 122.097,361.052 121,357.5C 120.586,357.957 120.086,358.291 119.5,358.5C 117.53,355.955 115.363,353.621 113,351.5C 111.193,344.896 107.693,339.562 102.5,335.5C 102.167,335.5 101.833,335.5 101.5,335.5C 100.058,334.18 99.3915,332.514 99.5,330.5C 98.9396,328.199 98.4396,325.866 98,323.5C 97.3292,322.748 96.4959,322.414 95.5,322.5C 95.5793,319.729 95.0793,317.063 94,314.5C 93.5831,313.244 92.7498,312.577 91.5,312.5C 91.9465,309.99 91.2798,307.99 89.5,306.5C 89.6621,304.473 89.4955,302.473 89,300.5C 88.6174,299.944 88.1174,299.611 87.5,299.5C 87.8893,296.447 87.2227,293.78 85.5,291.5C 85.5,288.833 85.5,286.167 85.5,283.5C 82.7407,265.968 81.9074,248.301 83,230.5C 84.1392,222.053 85.3058,213.72 86.5,205.5C 87.2952,201.524 87.9619,197.524 88.5,193.5C 90.9763,190.712 91.9763,187.378 91.5,183.5C 91.5,182.833 91.8333,182.5 92.5,182.5C 95.8153,178.514 97.4819,173.848 97.5,168.5C 98.9063,168.027 99.573,167.027 99.5,165.5C 99.5,165.167 99.5,164.833 99.5,164.5C 100.906,164.027 101.573,163.027 101.5,161.5C 101.5,161.167 101.5,160.833 101.5,160.5C 102.906,160.027 103.573,159.027 103.5,157.5C 103.5,157.167 103.5,156.833 103.5,156.5C 104.906,156.027 105.573,155.027 105.5,153.5C 105.932,152.29 106.599,151.29 107.5,150.5C 110.804,149.856 112.138,147.856 111.5,144.5C 111.5,144.167 111.5,143.833 111.5,143.5C 113.836,142.155 115.503,140.155 116.5,137.5C 118.984,135.2 120.984,132.533 122.5,129.5C 125.5,128.5 127.5,126.5 128.5,123.5C 131.5,120.167 134.5,116.833 137.5,113.5C 137.833,112.5 138.5,111.833 139.5,111.5C 143.21,111.734 145.544,110.067 146.5,106.5C 146.5,106.167 146.5,105.833 146.5,105.5C 149.344,105.657 151.011,104.324 151.5,101.5C 154.089,100.581 156.089,98.914 157.5,96.5C 161.208,96.2883 163.874,94.6217 165.5,91.5C 167.027,91.573 168.027,90.9063 168.5,89.5C 168.842,88.6618 169.508,88.3284 170.5,88.5C 172.848,88.4077 174.514,87.4077 175.5,85.5C 178.393,85.9689 180.393,84.9689 181.5,82.5C 183.181,80.9925 185.181,79.9925 187.5,79.5C 189.483,79.8432 190.817,79.1765 191.5,77.5C 191.833,77.5 192.167,77.5 192.5,77.5C 196.237,76.8004 199.904,75.8004 203.5,74.5C 215.083,71.6832 226.749,69.1832 238.5,67C 255.5,66.3333 272.5,66.3333 289.5,67C 293.955,68.6152 298.622,69.4485 303.5,69.5 Z"/></g>
<g><path style="opacity:1" fill="#87e8b2" d="M 209.5,71.5 C 207.898,73.0739 205.898,73.7406 203.5,73.5C 205.102,71.9261 207.102,71.2594 209.5,71.5 Z"/></g>
<g><path style="opacity:1" fill="#b2f6d5" d="M 318.5,71.5 C 320.153,71.6596 321.486,72.3263 322.5,73.5C 320.62,73.7709 319.287,73.1042 318.5,71.5 Z"/></g>
<g><path style="opacity:1" fill="#8ae4b2" d="M 203.5,73.5 C 203.5,73.8333 203.5,74.1667 203.5,74.5C 199.904,75.8004 196.237,76.8004 192.5,77.5C 195.8,75.3582 199.467,74.0249 203.5,73.5 Z"/></g>
<g><path style="opacity:1" fill="#6bdc97" d="M 323.5,73.5 C 325.579,73.9707 327.579,74.6373 329.5,75.5C 329.833,76.1667 330.167,76.8333 330.5,77.5C 327.379,77.2639 325.046,75.9305 323.5,73.5 Z"/></g>
<g><path style="opacity:1" fill="#cbf7e0" d="M 329.5,75.5 C 331.153,75.6596 332.486,76.3263 333.5,77.5C 332.5,77.5 331.5,77.5 330.5,77.5C 330.167,76.8333 329.833,76.1667 329.5,75.5 Z"/></g>
<g><path style="opacity:1" fill="#99e4b8" d="M 191.5,77.5 C 190.817,79.1765 189.483,79.8432 187.5,79.5C 188.514,78.3263 189.847,77.6596 191.5,77.5 Z"/></g>
<g><path style="opacity:1" fill="#bdf5d7" d="M 342.5,81.5 C 344.153,81.6596 345.486,82.3263 346.5,83.5C 344.62,83.7709 343.287,83.1042 342.5,81.5 Z"/></g>
<g><path style="opacity:1" fill="#63db8f" d="M 330.5,77.5 C 331.5,77.5 332.5,77.5 333.5,77.5C 336.706,78.4541 339.706,79.7875 342.5,81.5C 343.287,83.1042 344.62,83.7709 346.5,83.5C 348.674,83.7497 350.341,84.7497 351.5,86.5C 347.774,85.8085 344.107,84.8085 340.5,83.5C 337.33,80.928 333.997,78.928 330.5,77.5 Z"/></g>
<g><path style="opacity:1" fill="#74dfa0" d="M 181.5,82.5 C 180.393,84.9689 178.393,85.9689 175.5,85.5C 177.181,83.9925 179.181,82.9925 181.5,82.5 Z"/></g>
<g><path style="opacity:1" fill="#9bedbd" d="M 175.5,85.5 C 174.514,87.4077 172.848,88.4077 170.5,88.5C 171.659,86.7497 173.326,85.7497 175.5,85.5 Z"/></g>
<g><path style="opacity:1" fill="#8be6b2" d="M 351.5,86.5 C 353.819,86.9925 355.819,87.9925 357.5,89.5C 354.68,89.913 352.68,88.913 351.5,86.5 Z"/></g>
<g><path style="opacity:1" fill="#abf1cb" d="M 168.5,89.5 C 168.027,90.9063 167.027,91.573 165.5,91.5C 165.973,90.0937 166.973,89.427 168.5,89.5 Z"/></g>
<g><path style="opacity:1" fill="#98ecc6" d="M 357.5,89.5 C 359.23,90.0256 360.564,91.0256 361.5,92.5C 359.368,92.4456 358.035,91.4456 357.5,89.5 Z"/></g>
<g><path style="opacity:1" fill="#84dfa9" d="M 165.5,91.5 C 163.874,94.6217 161.208,96.2883 157.5,96.5C 159.84,94.3856 162.507,92.7189 165.5,91.5 Z"/></g>
<g><path style="opacity:1" fill="#78e1a4" d="M 362.5,92.5 C 365.81,94.4821 368.81,96.8154 371.5,99.5C 368.413,99.0964 365.746,97.7631 363.5,95.5C 362.873,94.5832 362.539,93.5832 362.5,92.5 Z"/></g>
<g><path style="opacity:1" fill="#a1edbf" d="M 157.5,96.5 C 156.089,98.914 154.089,100.581 151.5,101.5C 152.911,99.086 154.911,97.4194 157.5,96.5 Z"/></g>
<g><path style="opacity:1" fill="#abf8e3" d="M 371.5,99.5 C 373.027,99.427 374.027,100.094 374.5,101.5C 372.973,101.573 371.973,100.906 371.5,99.5 Z"/></g>
<g><path style="opacity:1" fill="#e2faf0" d="M 374.5,101.5 C 375.833,101.5 376.5,102.167 376.5,103.5C 375.5,103.167 374.833,102.5 374.5,101.5 Z"/></g>
<g><path style="opacity:1" fill="#c7f8e6" d="M 376.5,103.5 C 378.027,103.427 379.027,104.094 379.5,105.5C 377.973,105.573 376.973,104.906 376.5,103.5 Z"/></g>
<g><path style="opacity:1" fill="#7ce1a1" d="M 151.5,101.5 C 151.011,104.324 149.344,105.657 146.5,105.5C 147.539,103.469 149.205,102.136 151.5,101.5 Z"/></g>
<g><path style="opacity:1" fill="#aef4cb" d="M 146.5,105.5 C 146.5,105.833 146.5,106.167 146.5,106.5C 145.609,107.11 144.609,107.443 143.5,107.5C 143.973,106.094 144.973,105.427 146.5,105.5 Z"/></g>
<g><path style="opacity:1" fill="#78dca0" d="M 379.5,105.5 C 381.167,106.5 382.5,107.833 383.5,109.5C 380.858,109.512 379.525,108.179 379.5,105.5 Z"/></g>
<g><path style="opacity:1" fill="#49d686" d="M 146.5,106.5 C 145.544,110.067 143.21,111.734 139.5,111.5C 140.5,109.833 141.833,108.5 143.5,107.5C 144.609,107.443 145.609,107.11 146.5,106.5 Z"/></g>
<g><path style="opacity:1" fill="#c0f5d9" d="M 383.5,109.5 C 388.282,112.447 392.282,116.28 395.5,121C 395.164,122.03 394.497,122.53 393.5,122.5C 394.047,120.288 393.047,118.621 390.5,117.5C 388.115,114.788 385.782,112.122 383.5,109.5 Z"/></g>
<g><path style="opacity:1" fill="#c0f9de" d="M 137.5,113.5 C 134.5,116.833 131.5,120.167 128.5,123.5C 128.167,123.5 127.833,123.5 127.5,123.5C 129.833,119.167 133.167,115.833 137.5,113.5 Z"/></g>
<g><path style="opacity:1" fill="#6ddd9f" d="M 127.5,123.5 C 127.833,123.5 128.167,123.5 128.5,123.5C 127.5,126.5 125.5,128.5 122.5,129.5C 123.419,126.911 125.086,124.911 127.5,123.5 Z"/></g>
<g><path style="opacity:1" fill="#dcfaea" d="M 391.5,124.5 C 391.5,125.833 390.833,126.5 389.5,126.5C 389.833,125.5 390.5,124.833 391.5,124.5 Z"/></g>
<g><path style="opacity:1" fill="#92e9b9" d="M 122.5,129.5 C 120.984,132.533 118.984,135.2 116.5,137.5C 117.529,134.109 119.529,131.443 122.5,129.5 Z"/></g>
<g><path style="opacity:1" fill="#54d98a" d="M 390.5,117.5 C 393.047,118.621 394.047,120.288 393.5,122.5C 393.167,123.5 392.5,124.167 391.5,124.5C 390.5,124.833 389.833,125.5 389.5,126.5C 385.5,131.167 381.167,135.5 376.5,139.5C 375.599,135.759 376.932,133.759 380.5,133.5C 381.732,130.747 383.232,128.08 385,125.5C 385.718,126.451 386.551,126.617 387.5,126C 386.446,124.612 386.28,123.112 387,121.5C 387.71,122.973 388.876,123.64 390.5,123.5C 390.5,121.5 390.5,119.5 390.5,117.5 Z"/></g>
<g><path style="opacity:1" fill="#aaf4ca" d="M 116.5,137.5 C 115.503,140.155 113.836,142.155 111.5,143.5C 112.497,140.845 114.164,138.845 116.5,137.5 Z"/></g>
<g><path style="opacity:1" fill="#dafaed" d="M 372.5,143.5 C 372.5,144.833 371.833,145.5 370.5,145.5C 370.833,144.5 371.5,143.833 372.5,143.5 Z"/></g>
<g><path style="opacity:1" fill="#6dde9d" d="M 111.5,144.5 C 112.138,147.856 110.804,149.856 107.5,150.5C 108.34,148.147 109.674,146.147 111.5,144.5 Z"/></g>
<g><path style="opacity:1" fill="#6cdb99" d="M 376.5,139.5 C 375.5,141.167 374.167,142.5 372.5,143.5C 371.5,143.833 370.833,144.5 370.5,145.5C 368.5,148.167 366.167,150.5 363.5,152.5C 364.185,150.586 364.685,148.586 365,146.5C 365.414,146.957 365.914,147.291 366.5,147.5C 369.134,145.876 370.467,143.543 370.5,140.5C 372.5,140.167 374.5,139.833 376.5,139.5 Z"/></g>
<g><path style="opacity:1" fill="#6edd9c" d="M 363.5,152.5 C 362.215,154.452 360.549,156.118 358.5,157.5C 358.5,155.833 358.5,154.167 358.5,152.5C 360.167,152.5 361.833,152.5 363.5,152.5 Z"/></g>
<g><path style="opacity:1" fill="#c0f4d8" d="M 252.5,153.5 C 259.022,153.177 265.355,153.51 271.5,154.5C 261.781,154.218 252.114,154.551 242.5,155.5C 242.611,154.883 242.944,154.383 243.5,154C 246.482,153.502 249.482,153.335 252.5,153.5 Z"/></g>
<g><path style="opacity:1" fill="#69db9b" d="M 252.5,153.5 C 259.989,152.344 267.655,152.178 275.5,153C 278.802,153.661 281.802,154.828 284.5,156.5C 280.227,155.535 275.894,154.869 271.5,154.5C 265.355,153.51 259.022,153.177 252.5,153.5 Z"/></g>
<g><path style="opacity:1" fill="#d5fae7" d="M 105.5,153.5 C 105.573,155.027 104.906,156.027 103.5,156.5C 103.427,154.973 104.094,153.973 105.5,153.5 Z"/></g>
<g><path style="opacity:1" fill="#94e9ba" d="M 241.5,155.5 C 238.205,156.284 234.871,157.284 231.5,158.5C 231.881,157.069 232.881,156.236 234.5,156C 236.81,155.503 239.143,155.337 241.5,155.5 Z"/></g>
<g><path style="opacity:1" fill="#69da98" d="M 285.5,156.5 C 287.857,156.337 290.19,156.503 292.5,157C 295.115,157.612 296.781,159.112 297.5,161.5C 293.261,160.204 289.261,158.538 285.5,156.5 Z"/></g>
<g><path style="opacity:1" fill="#dafaeb" d="M 358.5,157.5 C 358.5,158.833 357.833,159.5 356.5,159.5C 356.833,158.5 357.5,157.833 358.5,157.5 Z"/></g>
<g><path style="opacity:1" fill="#baf8df" d="M 103.5,157.5 C 103.573,159.027 102.906,160.027 101.5,160.5C 101.427,158.973 102.094,157.973 103.5,157.5 Z"/></g>
<g><path style="opacity:1" fill="#91e5b2" d="M 298.5,161.5 C 301.639,161.599 303.973,162.932 305.5,165.5C 302.669,164.921 300.336,163.588 298.5,161.5 Z"/></g>
<g><path style="opacity:1" fill="#c4f6e1" d="M 101.5,161.5 C 101.573,163.027 100.906,164.027 99.5,164.5C 99.427,162.973 100.094,161.973 101.5,161.5 Z"/></g>
<g><path style="opacity:1" fill="#6bdd97" d="M 228.5,159.5 C 219.738,163.231 211.404,167.897 203.5,173.5C 204.038,171.883 204.371,170.216 204.5,168.5C 205.833,168.5 207.167,168.5 208.5,168.5C 208.33,167.178 208.663,166.011 209.5,165C 213.728,163.886 217.728,162.22 221.5,160C 223.81,159.503 226.143,159.337 228.5,159.5 Z"/></g>
<g><path style="opacity:1" fill="#60db92" d="M 356.5,159.5 C 351.5,165.167 346.167,170.5 340.5,175.5C 340.67,174.178 340.337,173.011 339.5,172C 340.793,171.51 342.127,171.343 343.5,171.5C 343.215,169.712 343.548,168.045 344.5,166.5C 345.086,166.709 345.586,167.043 346,167.5C 347.487,166.747 347.654,165.914 346.5,165C 347.793,164.51 349.127,164.343 350.5,164.5C 350.67,163.178 350.337,162.011 349.5,161C 351.74,160.023 354.073,159.523 356.5,159.5 Z"/></g>
<g><path style="opacity:1" fill="#ccf6e3" d="M 99.5,165.5 C 99.573,167.027 98.9063,168.027 97.5,168.5C 97.427,166.973 98.0937,165.973 99.5,165.5 Z"/></g>
<g><path style="opacity:1" fill="#72dd9d" d="M 97.5,168.5 C 97.4819,173.848 95.8153,178.514 92.5,182.5C 93.4066,177.439 95.0733,172.772 97.5,168.5 Z"/></g>
<g><path style="opacity:1" fill="#8ae6b1" d="M 202.5,174.5 C 200.1,177.903 197.1,180.57 193.5,182.5C 194.684,180.229 195.684,177.895 196.5,175.5C 198.565,175.483 200.565,175.15 202.5,174.5 Z"/></g>
<g><path style="opacity:1" fill="#bdf6db" d="M 319.5,175.5 C 321.404,175.738 322.738,176.738 323.5,178.5C 321.596,178.262 320.262,177.262 319.5,175.5 Z"/></g>
<g><path style="opacity:1" fill="#53d488" d="M 340.5,175.5 C 338.167,178.5 335.5,181.167 332.5,183.5C 330.784,183.371 329.117,183.038 327.5,182.5C 325.833,181.5 324.5,180.167 323.5,178.5C 326.193,179.552 328.86,180.552 331.5,181.5C 331.5,180.5 331.5,179.5 331.5,178.5C 332.822,178.33 333.989,178.663 335,179.5C 335.662,176.583 337.495,175.25 340.5,175.5 Z"/></g>
<g><path style="opacity:1" fill="#a2e4bb" d="M 327.5,182.5 C 329.117,183.038 330.784,183.371 332.5,183.5C 330.543,186.059 328.877,185.726 327.5,182.5 Z"/></g>
<g><path style="opacity:1" fill="#bef8da" d="M 193.5,182.5 C 193.262,184.404 192.262,185.738 190.5,186.5C 190.738,184.596 191.738,183.262 193.5,182.5 Z"/></g>
<g><path style="opacity:1" fill="#8ae3ac" d="M 190.5,186.5 C 189.54,188.461 188.207,190.127 186.5,191.5C 186.5,189.833 186.5,188.167 186.5,186.5C 187.833,186.5 189.167,186.5 190.5,186.5 Z"/></g>
<g><path style="opacity:1" fill="#85e2aa" d="M 91.5,183.5 C 91.9763,187.378 90.9763,190.712 88.5,193.5C 88.9754,189.916 89.9754,186.583 91.5,183.5 Z"/></g>
<g><path style="opacity:1" fill="#94e6b7" d="M 186.5,191.5 C 184.154,195.531 181.82,199.531 179.5,203.5C 180.092,198.448 182.425,194.448 186.5,191.5 Z"/></g>
<g><path style="opacity:1" fill="#a5efc8" d="M 88.5,193.5 C 87.9619,197.524 87.2952,201.524 86.5,205.5C 85.8333,206.5 85.1667,207.5 84.5,208.5C 85.0756,203.191 86.409,198.191 88.5,193.5 Z"/></g>
<g><path style="opacity:1" fill="#d0f8e1" d="M 176.5,207.5 C 176.833,207.5 177.167,207.5 177.5,207.5C 177.771,209.38 177.104,210.713 175.5,211.5C 175.833,210.167 176.167,208.833 176.5,207.5 Z"/></g>
<g><path style="opacity:1" fill="#a9f2d2" d="M 173.5,217.5 C 173.405,219.786 172.738,221.786 171.5,223.5C 171.259,221.102 171.926,219.102 173.5,217.5 Z"/></g>
<g><path style="opacity:1" fill="#abedc6" d="M 83.5,214.5 C 83.7204,219.1 83.0538,223.433 81.5,227.5C 81.6245,222.951 82.2911,218.618 83.5,214.5 Z"/></g>
<g><path style="opacity:1" fill="#49d083" d="M 176.5,207.5 C 176.167,208.833 175.833,210.167 175.5,211.5C 175.396,213.703 174.73,215.703 173.5,217.5C 171.926,219.102 171.259,221.102 171.5,223.5C 171.5,224.167 171.5,224.833 171.5,225.5C 170.833,226.167 170.167,226.833 169.5,227.5C 170.233,220.083 172.566,213.416 176.5,207.5 Z"/></g>
<g><path style="opacity:1" fill="#a1edc8" d="M 171.5,225.5 C 171.279,228.067 170.612,230.401 169.5,232.5C 169.5,230.833 169.5,229.167 169.5,227.5C 170.167,226.833 170.833,226.167 171.5,225.5 Z"/></g>
<g><path style="opacity:1" fill="#88e6b6" d="M 169.5,233.5 C 168.167,243.167 168.167,252.833 169.5,262.5C 168.058,257.745 167.392,252.745 167.5,247.5C 167.354,242.576 168.021,237.909 169.5,233.5 Z"/></g>
<g><path style="opacity:1" fill="#54d885" d="M 86.5,205.5 C 85.3058,213.72 84.1392,222.053 83,230.5C 81.9074,248.301 82.7407,265.968 85.5,283.5C 84.8333,283.167 84.1667,282.833 83.5,282.5C 83.5,281.833 83.5,281.167 83.5,280.5C 83.8439,275.878 83.1773,271.545 81.5,267.5C 80.1667,254.167 80.1667,240.833 81.5,227.5C 83.0538,223.433 83.7204,219.1 83.5,214.5C 83.3253,212.379 83.6586,210.379 84.5,208.5C 85.1667,207.5 85.8333,206.5 86.5,205.5 Z"/></g>
<g><path style="opacity:1" fill="#80e3ab" d="M 169.5,263.5 C 170.768,265.905 171.435,268.572 171.5,271.5C 169.631,269.365 168.964,266.698 169.5,263.5 Z"/></g>
<g><path style="opacity:1" fill="#acf0cb" d="M 81.5,267.5 C 83.1773,271.545 83.8439,275.878 83.5,280.5C 82.4371,276.361 81.7704,272.028 81.5,267.5 Z"/></g>
<g><path style="opacity:1" fill="#83e4b1" d="M 171.5,273.5 C 173.074,275.102 173.741,277.102 173.5,279.5C 171.926,277.898 171.259,275.898 171.5,273.5 Z"/></g>
<g><path style="opacity:1" fill="#c2f4dd" d="M 175.5,284.5 C 177.104,285.287 177.771,286.62 177.5,288.5C 175.896,287.713 175.229,286.38 175.5,284.5 Z"/></g>
<g><path style="opacity:1" fill="#b6f0ca" d="M 83.5,282.5 C 84.1667,282.833 84.8333,283.167 85.5,283.5C 85.5,286.167 85.5,288.833 85.5,291.5C 84.525,288.689 83.8583,285.689 83.5,282.5 Z"/></g>
<g><path style="opacity:1" fill="#aff2ce" d="M 85.5,291.5 C 87.2227,293.78 87.8893,296.447 87.5,299.5C 86.469,297.039 85.8023,294.373 85.5,291.5 Z"/></g>
<g><path style="opacity:1" fill="#99edbe" d="M 87.5,299.5 C 88.1174,299.611 88.6174,299.944 89,300.5C 89.4955,302.473 89.6621,304.473 89.5,306.5C 88.3882,304.401 87.7215,302.067 87.5,299.5 Z"/></g>
<g><path style="opacity:1" fill="#a3edc2" d="M 184.5,301.5 C 186.262,302.262 187.262,303.596 187.5,305.5C 185.738,304.738 184.738,303.404 184.5,301.5 Z"/></g>
<g><path style="opacity:1" fill="#bdf7d9" d="M 187.5,305.5 C 189.587,306.585 190.92,308.251 191.5,310.5C 189.413,309.415 188.08,307.749 187.5,305.5 Z"/></g>
<g><path style="opacity:1" fill="#aaeabe" d="M 89.5,306.5 C 91.2798,307.99 91.9465,309.99 91.5,312.5C 90.5418,310.698 89.8751,308.698 89.5,306.5 Z"/></g>
<g><path style="opacity:1" fill="#e0faf3" d="M 191.5,310.5 C 192.833,310.5 193.5,311.167 193.5,312.5C 192.5,312.167 191.833,311.5 191.5,310.5 Z"/></g>
<g><path style="opacity:1" fill="#7adea0" d="M 91.5,312.5 C 92.7498,312.577 93.5831,313.244 94,314.5C 95.0793,317.063 95.5793,319.729 95.5,322.5C 93.7989,319.414 92.4656,316.081 91.5,312.5 Z"/></g>
<g><path style="opacity:1" fill="#8debb8" d="M 333.5,314.5 C 335.5,315.167 336.833,316.5 337.5,318.5C 335.29,318.106 333.957,316.773 333.5,314.5 Z"/></g>
<g><path style="opacity:1" fill="#82e3ac" d="M 193.5,312.5 C 196.859,315.529 200.192,318.529 203.5,321.5C 198.245,320.576 194.912,317.576 193.5,312.5 Z"/></g>
<g><path style="opacity:1" fill="#93e8b9" d="M 332.5,312.5 C 331.504,312.586 330.671,312.252 330,311.5C 326.902,315.107 323.402,318.107 319.5,320.5C 322.296,317.203 325.296,314.036 328.5,311C 330.352,310.227 331.686,310.727 332.5,312.5 Z"/></g>
<g><path style="opacity:1" fill="#bdfadf" d="M 338.5,318.5 C 340.5,319.833 342.167,321.5 343.5,323.5C 340.833,322.833 339.167,321.167 338.5,318.5 Z"/></g>
<g><path style="opacity:1" fill="#93e8b7" d="M 319.5,320.5 C 317.428,323.893 314.428,326.226 310.5,327.5C 313.147,324.87 316.147,322.537 319.5,320.5 Z"/></g>
<g><path style="opacity:1" fill="#7edda0" d="M 95.5,322.5 C 96.4959,322.414 97.3292,322.748 98,323.5C 98.4396,325.866 98.9396,328.199 99.5,330.5C 97.6117,328.206 96.2784,325.539 95.5,322.5 Z"/></g>
<g><path style="opacity:1" fill="#8ce6ac" d="M 203.5,321.5 C 206.473,323.147 209.14,325.147 211.5,327.5C 207.275,327.404 204.608,325.404 203.5,321.5 Z"/></g>
<g><path style="opacity:1" fill="#ccf7de" d="M 309.5,327.5 C 309.027,328.906 308.027,329.573 306.5,329.5C 306.973,328.094 307.973,327.427 309.5,327.5 Z"/></g>
<g><path style="opacity:1" fill="#c0f6db" d="M 218.5,331.5 C 220.027,331.427 221.027,332.094 221.5,333.5C 219.973,333.573 218.973,332.906 218.5,331.5 Z"/></g>
<g><path style="opacity:1" fill="#7ee1a9" d="M 303.5,331.5 C 301.236,334.126 298.236,335.459 294.5,335.5C 297.256,333.796 300.256,332.463 303.5,331.5 Z"/></g>
<g><path style="opacity:1" fill="#bff2d7" d="M 222.5,333.5 C 224.153,333.66 225.486,334.326 226.5,335.5C 224.62,335.771 223.287,335.104 222.5,333.5 Z"/></g>
<g><path style="opacity:1" fill="#77e1a5" d="M 348.5,329.5 C 354.5,333.5 359.5,338.5 363.5,344.5C 358.882,340.557 354.215,336.557 349.5,332.5C 348.614,331.675 348.281,330.675 348.5,329.5 Z"/></g>
<g><path style="opacity:1" fill="#a5eec0" d="M 226.5,335.5 C 228.786,335.595 230.786,336.262 232.5,337.5C 229.99,337.946 227.99,337.28 226.5,335.5 Z"/></g>
<g><path style="opacity:1" fill="#c9f8de" d="M 101.5,335.5 C 101.833,335.5 102.167,335.5 102.5,335.5C 103.11,336.391 103.443,337.391 103.5,338.5C 102.094,338.027 101.427,337.027 101.5,335.5 Z"/></g>
<g><path style="opacity:1" fill="#89e8b6" d="M 294.5,335.5 C 292.383,337.655 289.716,338.655 286.5,338.5C 288.936,337.129 291.603,336.129 294.5,335.5 Z"/></g>
<g><path style="opacity:1" fill="#b1f6d2" d="M 232.5,337.5 C 235.067,337.721 237.401,338.388 239.5,339.5C 236.772,339.829 234.438,339.163 232.5,337.5 Z"/></g>
<g><path style="opacity:1" fill="#cbfae4" d="M 103.5,338.5 C 104.401,339.29 105.068,340.29 105.5,341.5C 103.952,341.179 103.285,340.179 103.5,338.5 Z"/></g>
<g><path style="opacity:1" fill="#46ce7e" d="M 239.5,339.5 C 241.099,339.232 242.432,339.566 243.5,340.5C 247.919,341.972 252.586,342.638 257.5,342.5C 259.833,342.5 262.167,342.5 264.5,342.5C 266.833,342.5 269.167,342.5 271.5,342.5C 261.296,343.849 250.963,343.682 240.5,342C 239.748,341.329 239.414,340.496 239.5,339.5 Z"/></g>
<g><path style="opacity:1" fill="#b5f7d4" d="M 243.5,340.5 C 248.414,340.362 253.081,341.028 257.5,342.5C 252.586,342.638 247.919,341.972 243.5,340.5 Z"/></g>
<g><path style="opacity:1" fill="#bbf8d7" d="M 275.5,340.5 C 274.167,341.167 272.833,341.833 271.5,342.5C 269.167,342.5 266.833,342.5 264.5,342.5C 267.946,341.313 271.613,340.646 275.5,340.5 Z"/></g>
<g><path style="opacity:1" fill="#64dc95" d="M 286.5,338.5 C 281.95,341.084 276.95,342.417 271.5,342.5C 272.833,341.833 274.167,341.167 275.5,340.5C 279.136,339.674 282.803,339.008 286.5,338.5 Z"/></g>
<g><path style="opacity:1" fill="#57da8a" d="M 363.5,344.5 C 368.167,347.167 371.833,350.833 374.5,355.5C 370.669,355.341 368.336,353.341 367.5,349.5C 366.311,348.571 364.978,348.238 363.5,348.5C 363.5,347.167 363.5,345.833 363.5,344.5 Z"/></g>
<g><path style="opacity:1" fill="#adf2cf" d="M 375.5,355.5 C 382.479,361.812 389.146,368.479 395.5,375.5C 394.643,376.425 393.643,377.092 392.5,377.5C 392.768,375.901 392.434,374.568 391.5,373.5C 385.773,367.778 380.44,361.778 375.5,355.5 Z"/></g>
<g><path style="opacity:1" fill="#4bd87d" d="M 102.5,335.5 C 107.693,339.562 111.193,344.896 113,351.5C 115.363,353.621 117.53,355.955 119.5,358.5C 120.086,358.291 120.586,357.957 121,357.5C 122.097,361.052 123.597,364.385 125.5,367.5C 124.833,367.5 124.167,367.5 123.5,367.5C 121.738,366.738 120.738,365.404 120.5,363.5C 119.503,360.845 117.836,358.845 115.5,357.5C 111.169,352.848 107.835,347.514 105.5,341.5C 105.068,340.29 104.401,339.29 103.5,338.5C 103.443,337.391 103.11,336.391 102.5,335.5 Z"/></g>
<g><path style="opacity:1" fill="#aaf4c7" d="M 115.5,357.5 C 117.836,358.845 119.503,360.845 120.5,363.5C 118.164,362.155 116.497,360.155 115.5,357.5 Z"/></g>
<g><path style="opacity:1" fill="#9fe9bd" d="M 123.5,367.5 C 124.167,367.5 124.833,367.5 125.5,367.5C 126.5,369.5 127.5,371.5 128.5,373.5C 126.11,372.109 124.443,370.109 123.5,367.5 Z"/></g>
<g><path style="opacity:1" fill="#47d27e" d="M 125.5,367.5 C 128.068,368.574 129.735,370.574 130.5,373.5C 133.516,375.243 135.849,377.577 137.5,380.5C 136.833,380.5 136.167,380.5 135.5,380.5C 132.833,378.5 130.5,376.167 128.5,373.5C 127.5,371.5 126.5,369.5 125.5,367.5 Z"/></g>
<g><path style="opacity:1" fill="#4ed883" d="M 391.5,373.5 C 392.434,374.568 392.768,375.901 392.5,377.5C 390.833,379.833 388.833,381.833 386.5,383.5C 386.167,383.5 385.833,383.5 385.5,383.5C 384.848,379.44 386.515,377.44 390.5,377.5C 390.232,375.901 390.566,374.568 391.5,373.5 Z"/></g>
<g><path style="opacity:1" fill="#a7eec1" d="M 135.5,380.5 C 136.167,380.5 136.833,380.5 137.5,380.5C 139.5,382.833 141.5,385.167 143.5,387.5C 140.236,385.906 137.569,383.573 135.5,380.5 Z"/></g>
<g><path style="opacity:1" fill="#abedc7" d="M 385.5,383.5 C 385.833,383.5 386.167,383.5 386.5,383.5C 385.5,385.167 384.167,386.5 382.5,387.5C 382.557,386.391 382.89,385.391 383.5,384.5C 383.842,383.662 384.508,383.328 385.5,383.5 Z"/></g>
<g><path style="opacity:1" fill="#90e5b3" d="M 143.5,387.5 C 145.749,388.08 147.415,389.413 148.5,391.5C 146.251,390.92 144.585,389.587 143.5,387.5 Z"/></g>
<g><path style="opacity:1" fill="#51d788" d="M 383.5,384.5 C 382.89,385.391 382.557,386.391 382.5,387.5C 380.858,388.803 379.191,390.136 377.5,391.5C 375.973,391.427 374.973,392.094 374.5,393.5C 373.5,393.833 372.833,394.5 372.5,395.5C 370.973,395.427 369.973,396.094 369.5,397.5C 369.5,398.167 369.167,398.5 368.5,398.5C 368.5,397.167 368.5,395.833 368.5,394.5C 369.5,394.5 370.5,394.5 371.5,394.5C 371.5,393.5 371.5,392.5 371.5,391.5C 373.564,391.313 375.564,390.813 377.5,390C 378.425,386.905 380.425,385.072 383.5,384.5 Z"/></g>
<g><path style="opacity:1" fill="#c0fae9" d="M 377.5,391.5 C 377.027,392.906 376.027,393.573 374.5,393.5C 374.973,392.094 375.973,391.427 377.5,391.5 Z"/></g>
<g><path style="opacity:1" fill="#8ce9b2" d="M 148.5,392.5 C 150.989,392.241 152.656,393.241 153.5,395.5C 151.566,394.89 149.899,393.89 148.5,392.5 Z"/></g>
<g><path style="opacity:1" fill="#ddfaf0" d="M 374.5,393.5 C 374.5,394.833 373.833,395.5 372.5,395.5C 372.833,394.5 373.5,393.833 374.5,393.5 Z"/></g>
<g><path style="opacity:1" fill="#a2eec5" d="M 153.5,395.5 C 155.749,396.08 157.415,397.413 158.5,399.5C 156.251,398.92 154.585,397.587 153.5,395.5 Z"/></g>
<g><path style="opacity:1" fill="#d9f9e4" d="M 372.5,395.5 C 372.027,396.906 371.027,397.573 369.5,397.5C 369.973,396.094 370.973,395.427 372.5,395.5 Z"/></g>
<g><path style="opacity:1" fill="#5cdc90" d="M 368.5,398.5 C 366.664,400.588 364.331,401.921 361.5,402.5C 361.5,401.167 361.5,399.833 361.5,398.5C 363.833,398.5 366.167,398.5 368.5,398.5 Z"/></g>
<g><path style="opacity:1" fill="#7edfa4" d="M 158.5,399.5 C 161.285,398.916 162.952,399.916 163.5,402.5C 161.326,402.25 159.659,401.25 158.5,399.5 Z"/></g>
<g><path style="opacity:1" fill="#9ff3c1" d="M 163.5,402.5 C 165.027,402.427 166.027,403.094 166.5,404.5C 164.973,404.573 163.973,403.906 163.5,402.5 Z"/></g>
<g><path style="opacity:1" fill="#6ddd98" d="M 166.5,404.5 C 169.962,405.153 173.128,406.487 176,408.5C 176.772,408.355 177.439,408.022 178,407.5C 179.388,409.702 180.888,411.702 182.5,413.5C 176.501,411.505 171.168,408.505 166.5,404.5 Z"/></g>
<g><path style="opacity:1" fill="#53d687" d="M 361.5,402.5 C 357.44,406.185 352.773,409.185 347.5,411.5C 345.62,411.229 344.287,411.896 343.5,413.5C 341.62,413.229 340.287,413.896 339.5,415.5C 339.167,415.5 338.833,415.5 338.5,415.5C 337.041,415.433 335.708,415.766 334.5,416.5C 336.87,414.462 339.537,412.628 342.5,411C 348.973,408.33 355.306,405.496 361.5,402.5 Z"/></g>
<g><path style="opacity:1" fill="#d6f8e5" d="M 347.5,411.5 C 346.486,412.674 345.153,413.34 343.5,413.5C 344.287,411.896 345.62,411.229 347.5,411.5 Z"/></g>
<g><path style="opacity:1" fill="#67db93" d="M 182.5,413.5 C 185.167,413.833 187.833,414.167 190.5,414.5C 190.5,415.5 190.5,416.5 190.5,417.5C 187.515,416.674 184.849,415.341 182.5,413.5 Z"/></g>
<g><path style="opacity:1" fill="#d1f8e5" d="M 343.5,413.5 C 342.486,414.674 341.153,415.34 339.5,415.5C 340.287,413.896 341.62,413.229 343.5,413.5 Z"/></g>
<g><path style="opacity:1" fill="#7fdea7" d="M 338.5,415.5 C 334.134,418.012 329.467,420.012 324.5,421.5C 327.344,419.021 330.678,417.354 334.5,416.5C 335.708,415.766 337.041,415.433 338.5,415.5 Z"/></g>
<g><path style="opacity:1" fill="#7ce1a9" d="M 191.5,417.5 C 194.491,417.166 196.824,418.166 198.5,420.5C 195.843,420.065 193.509,419.065 191.5,417.5 Z"/></g>
<g><path style="opacity:1" fill="#90e7b7" d="M 198.5,420.5 C 201.716,420.345 204.383,421.345 206.5,423.5C 203.603,422.871 200.936,421.871 198.5,420.5 Z"/></g>
<g><path style="opacity:1" fill="#baf8d9" d="M 323.5,421.5 C 322.22,422.931 320.553,423.598 318.5,423.5C 319.78,422.069 321.447,421.402 323.5,421.5 Z"/></g>
<g><path style="opacity:1" fill="#9aebbc" d="M 207.5,423.5 C 210.152,423.41 212.485,424.076 214.5,425.5C 211.848,425.59 209.515,424.924 207.5,423.5 Z"/></g>
<g><path style="opacity:1" fill="#9eefcc" d="M 317.5,423.5 C 315.786,424.738 313.786,425.405 311.5,425.5C 313.102,423.926 315.102,423.259 317.5,423.5 Z"/></g>
<g><path style="opacity:1" fill="#c0f5e0" d="M 214.5,425.5 C 216.898,425.259 218.898,425.926 220.5,427.5C 218.102,427.741 216.102,427.074 214.5,425.5 Z"/></g>
<g><path style="opacity:1" fill="#d0f9e1" d="M 311.5,425.5 C 309.485,426.924 307.152,427.59 304.5,427.5C 306.515,426.076 308.848,425.41 311.5,425.5 Z"/></g>
<g><path style="opacity:1" fill="#bff7db" d="M 222.5,427.5 C 223.833,427.5 225.167,427.5 226.5,427.5C 227.833,428.167 229.167,428.833 230.5,429.5C 227.505,429.706 224.838,429.04 222.5,427.5 Z"/></g>
<g><path style="opacity:1" fill="#d1f7e6" d="M 302.5,427.5 C 300.162,429.04 297.495,429.706 294.5,429.5C 296.838,427.96 299.505,427.294 302.5,427.5 Z"/></g>
<g><path style="opacity:1" fill="#6bda97" d="M 226.5,427.5 C 239.045,428.247 251.545,429.247 264,430.5C 273.497,430.021 282.997,429.688 292.5,429.5C 271.964,433.424 251.297,433.424 230.5,429.5C 229.167,428.833 227.833,428.167 226.5,427.5 Z"/></g>
</svg>
